<?xml version="1.0" encoding="UTF-8"?>
<svg version="1.1" xmlns="http://www.w3.org/2000/svg" width="500" height="500">
<path d="M0 0 C0.73347656 0.4846875 1.46695313 0.969375 2.22265625 1.46875 C5.72301112 3.39862217 9.10060833 3.80772714 13 4.3125 C58.89745933 11.24593595 101.63836563 37.68741789 129.3125 74.875 C160.44128775 117.62417576 173.88234742 169.94513338 165.80200195 222.42114258 C159.28627755 261.73972093 141.36693579 297.06396502 114 326 C112.80697266 327.28970703 112.80697266 327.28970703 111.58984375 328.60546875 C89.12371254 352.08816698 57.87235345 369.16252437 26.375 376.8125 C25.57747314 377.00739014 24.77994629 377.20228027 23.95825195 377.40307617 C9.19140303 380.7627453 -5.50015751 381.39796282 -20.58569336 381.42553711 C-23.72129169 381.43763033 -26.85503743 381.48716646 -29.99023438 381.53710938 C-31.99738638 381.54655553 -34.00455024 381.55379917 -36.01171875 381.55859375 C-36.9419133 381.57812607 -37.87210785 381.59765839 -38.83049011 381.61778259 C-43.41394564 381.58572377 -45.3541671 381.50833399 -49.06176758 378.59008789 C-52.00357192 374.6589124 -52.40997871 372.15964451 -52.33984375 367.328125 C-51.73805298 363.2055124 -50.16950667 361.69745249 -47 359 C-43.5625 357.875 -43.5625 357.875 -40 358 C-37.33019483 359.4832251 -35.15883622 360.84116378 -33 363 C-14.18144868 364.15436583 4.68178564 363.64005094 23 359 C23.73879395 358.82339844 24.47758789 358.64679688 25.23876953 358.46484375 C37.45116114 355.49893798 48.75255022 350.54278191 60 345 C60.64565918 344.68192383 61.29131836 344.36384766 61.95654297 344.03613281 C101.50876379 324.07116459 128.67133075 285.50673437 142.26660156 244.29321289 C156.17827399 199.88421836 151.354498 150.22229044 130 109 C115.03493159 81.00977945 93.22210391 58.16406005 66 42 C65.41669922 41.65340332 64.83339844 41.30680664 64.23242188 40.94970703 C46.2583063 30.44836454 21.14156373 19.97761004 0 21 C-0.495 21.495 -0.495 21.495 -1 22 C-7.68232044 22.90607735 -7.68232044 22.90607735 -10.86328125 20.71875 C-13.71677095 17.72224531 -15.38308178 15.12268524 -15.625 10.9375 C-14.82505077 5.89781988 -13.21124858 2.75374887 -9.1875 -0.4375 C-5.86614754 -1.29156206 -3.31978427 -0.75714378 0 0 Z " fill="#25CDCA" transform="translate(261,54)"/>
<path d="M0 0 C0 0.66 0 1.32 0 2 C0.99 2.33 1.98 2.66 3 3 C5.0058138 6.69492016 5.50936649 9.8401737 5 14 C3.2344231 17.0603333 1.49412245 19.50587755 -1 22 C-2.94784564 22.32166258 -4.9103439 22.55584575 -6.875 22.75 C-33.14197885 26.3233758 -59.21885208 38.56957296 -79.30078125 55.81640625 C-82 58 -82 58 -84 58 C-84 58.66 -84 59.32 -84 60 C-85.50390625 61.48046875 -85.50390625 61.48046875 -87.5625 63.1875 C-94.6578539 68.85095856 -94.6578539 68.85095856 -100 76 C-100.66 76 -101.32 76 -102 76 C-102.27618164 76.58249512 -102.55236328 77.16499023 -102.83691406 77.76513672 C-103.95694911 79.91727795 -105.18873434 81.79422295 -106.609375 83.7578125 C-107.11364014 84.46019043 -107.61790527 85.16256836 -108.13745117 85.88623047 C-108.66959229 86.62502441 -109.2017334 87.36381836 -109.75 88.125 C-125.85838649 110.80945155 -135.5379583 134.80183338 -141 162 C-141.18820313 162.87011719 -141.37640625 163.74023438 -141.5703125 164.63671875 C-149.72153567 209.46844621 -136.07355041 256.75001117 -111.40869141 294.00537109 C-110.0680706 295.90361581 -108.65094127 297.66442569 -107.13671875 299.42578125 C-105 302 -105 302 -105 304 C-104.34 304 -103.68 304 -103 304 C-101.2734375 305.6796875 -101.2734375 305.6796875 -99.375 307.875 C-98.74335937 308.59429687 -98.11171875 309.31359375 -97.4609375 310.0546875 C-96 312 -96 312 -96 314 C-95.01 314.33 -94.02 314.66 -93 315 C-93 315.66 -93 316.32 -93 317 C-92.44183594 317.23589844 -91.88367188 317.47179687 -91.30859375 317.71484375 C-88.4508389 319.30570897 -86.42115192 321.29606605 -84.0625 323.5625 C-74.19651587 332.76450791 -62.79853091 339.58541409 -51 346 C-49.96552734 346.58007812 -49.96552734 346.58007812 -48.91015625 347.171875 C-46.61146803 348.16844331 -44.47799119 348.46875427 -42 348.8125 C-38.37307447 349.4908793 -37.22484553 349.79160658 -34.4375 352.375 C-31.79061603 357.20844029 -31.84187991 360.58869484 -33.1484375 365.8671875 C-34 368 -34 368 -36.6875 370.625 C-40.75153464 372.31195778 -42.79933304 372.24464206 -47 371 C-49.4375 369.0625 -49.4375 369.0625 -51 367 C-51 366.34 -51 365.68 -51 365 C-51.84175781 364.74476563 -52.68351562 364.48953125 -53.55078125 364.2265625 C-57.27672636 362.90159448 -60.71185419 361.23950869 -64.1875 359.375 C-64.84387451 359.02381104 -65.50024902 358.67262207 -66.17651367 358.31079102 C-71.21287659 355.55536955 -75.8428704 352.43690272 -80.4140625 348.95703125 C-83.91273648 346.30924324 -87.5527343 343.88386353 -91.19921875 341.4453125 C-91.79347656 340.96835937 -92.38773437 340.49140625 -93 340 C-93 339.34 -93 338.68 -93 338 C-93.56074219 337.75507813 -94.12148437 337.51015625 -94.69921875 337.2578125 C-102.37649375 333.06072838 -108.46149883 325.65093517 -114 319 C-114.74765625 318.15179688 -115.4953125 317.30359375 -116.265625 316.4296875 C-132.50948858 297.68283865 -144.3523549 275.52928818 -152 252 C-152.23557617 251.29117676 -152.47115234 250.58235352 -152.71386719 249.85205078 C-162.74697576 219.10150332 -163.72703861 185.68255094 -158 154 C-157.86609863 153.25041016 -157.73219727 152.50082031 -157.59423828 151.72851562 C-154.13548784 133.26507691 -147.05471828 115.40477855 -138 99 C-137.43176514 97.95851807 -137.43176514 97.95851807 -136.85205078 96.89599609 C-128.43082389 81.59565145 -118.0147444 68.60917704 -106 56 C-105.27425781 55.22140625 -104.54851562 54.4428125 -103.80078125 53.640625 C-80.57745258 29.42998291 -49.37914987 13.62896365 -17 6 C-16.01 6 -15.02 6 -14 6 C-13.7525 5.401875 -13.505 4.80375 -13.25 4.1875 C-9.79349351 -1.86138636 -6.22863313 -1.14191607 0 0 Z " fill="#FD9D20" transform="translate(223,54)"/>
<path d="M0 0 C2.16001737 1.21018702 2.16001737 1.21018702 4 3 C4.50090468 5.22748131 4.50090468 5.22748131 4.50222206 7.88700771 C4.51243625 8.90069878 4.52265044 9.91438985 4.53317416 10.95879883 C4.5240495 12.07570683 4.51492484 13.19261483 4.50552368 14.34336853 C4.51465886 16.11932532 4.51465886 16.11932532 4.52397859 17.93116003 C4.5369232 21.22343326 4.53191616 24.51480972 4.51948738 27.8070277 C4.51044851 31.35517565 4.52444308 34.9032393 4.53575134 38.45137024 C4.55227146 44.60153382 4.55438154 50.75156738 4.54698563 56.90174675 C4.53648245 65.79826122 4.5498431 74.69461619 4.56945018 83.59110946 C4.60080766 98.03005982 4.61579733 112.46897653 4.61914062 126.90795898 C4.61934461 127.77249152 4.6195486 128.63702406 4.61975877 129.52775455 C4.61996214 130.39337349 4.62016551 131.25899243 4.62037504 132.15084225 C4.62329456 144.42112323 4.63009598 156.69139384 4.64160156 168.96166992 C4.64280951 170.25643832 4.64280951 170.25643832 4.64404185 171.57736366 C4.65778828 185.96028767 4.6795719 200.34319309 4.7054714 214.72610003 C4.72093284 223.60210666 4.72812184 232.47805261 4.72467647 241.35407246 C4.72263899 247.43398549 4.72728494 253.51386833 4.73721983 259.59377354 C4.74266229 263.10410299 4.74471062 266.61435432 4.73804665 270.12468338 C4.73086537 273.92637931 4.73891913 277.72795503 4.7484436 281.52964783 C4.74144878 283.20166375 4.74144878 283.20166375 4.73431265 284.90745777 C4.73931135 285.92375658 4.74431005 286.9400554 4.74946022 287.98715115 C4.74962527 289.30386025 4.74962527 289.30386025 4.74979365 290.64716953 C5.02162214 293.20332507 5.82599222 294.73964194 7 297 C7.33447374 301.21436918 7.43874817 303.90312958 5.875 307.8125 C3.45492126 310.6359252 1.53153395 311.82282202 -2 313 C-6.53737414 312.18327266 -9.04975884 310.49658211 -12 307 C-13.12256131 304.75487738 -13.13413762 303.48543351 -13.125 301 C-13.12886719 299.948125 -13.12886719 299.948125 -13.1328125 298.875 C-13 297 -13 297 -12 295 C-9.18299149 269.78695 -10.95951918 243.52402127 -11.10053515 218.21288514 C-11.13530651 211.75479116 -11.16360688 205.29666861 -11.19264221 198.83854675 C-11.24208409 188.03060911 -11.2954033 177.22269824 -11.35180664 166.41479492 C-11.40980967 155.29827035 -11.46539412 144.18173787 -11.51782227 133.06518555 C-11.52269684 132.03187089 -11.52269684 132.03187089 -11.5276699 130.9776812 C-11.54396333 127.52069991 -11.56021022 124.0637184 -11.57643402 120.60673678 C-11.71041298 92.07112083 -11.85256922 63.53554945 -12 35 C-15.91103695 40.79378651 -19.82125436 46.58812553 -23.73095703 52.3828125 C-25.05532183 54.34549872 -26.37986015 56.30806787 -27.70458984 58.27050781 C-35.71584822 70.13858884 -43.70355054 82.02151371 -51.63243675 93.9448061 C-53.65480249 96.98404669 -55.68116806 100.02061744 -57.70745277 103.05724621 C-59.20331354 105.30558896 -60.68130072 107.56484725 -62.1484375 109.83203125 C-62.67518066 110.64478516 -63.20192383 111.45753906 -63.74462891 112.29492188 C-64.28265137 113.12572266 -64.82067383 113.95652344 -65.375 114.8125 C-78.72878775 135.38959409 -78.72878775 135.38959409 -81.625 139.05859375 C-83.0434468 141.06134392 -83.68092712 142.72338425 -84.375 145.0625 C-85.40741403 147.91494287 -85.94450653 148.94913099 -88.25 151.0625 C-91.91865531 152.31317795 -94.2654608 151.95060998 -98 151 C-100.59110108 149.47105984 -101.77958319 148.53582496 -102.93359375 145.73046875 C-103.82349243 141.2395847 -104.28750713 138.75797333 -102.625 134.375 C-101.820625 133.199375 -101.820625 133.199375 -101 132 C-100.34 132 -99.68 132 -99 132 C-99 131.34 -99 130.68 -99 130 C-98.09008301 129.77828125 -97.18016602 129.5565625 -96.24267578 129.328125 C-92.33363636 127.72707287 -91.33863317 126.29388987 -89.1171875 122.75 C-88.43084229 121.67532471 -87.74449707 120.60064941 -87.03735352 119.4934082 C-86.31640817 118.32903837 -85.59562714 117.16456679 -84.875 116 C-84.12151237 114.81029881 -83.36620674 113.62174718 -82.60913086 112.43432617 C-81.09828471 110.06232258 -79.59459186 107.68603532 -78.09619141 105.30615234 C-75.32025451 100.92789268 -72.45543776 96.61398064 -69.5625 92.3125 C-68.60527515 90.88163991 -67.64823849 89.45065391 -66.69140625 88.01953125 C-66.24039551 87.34615723 -65.78938477 86.6727832 -65.32470703 85.97900391 C-62.81138115 82.2243007 -60.30782966 78.46307792 -57.80273438 74.70288086 C-55.47748995 71.21361009 -53.14857029 67.72683799 -50.81640625 64.2421875 C-50.27564453 63.43330078 -49.73488281 62.62441406 -49.17773438 61.79101562 C-48.12660165 60.2187651 -47.07456553 58.64711803 -46.02148438 57.07617188 C-44.01778391 54.077345 -42.06382745 51.11202369 -40.27734375 47.9765625 C-39.64505859 46.99816406 -39.64505859 46.99816406 -39 46 C-38.34 46 -37.68 46 -37 46 C-36.896875 45.443125 -36.79375 44.88625 -36.6875 44.3125 C-35.85821592 41.5230899 -34.65700944 39.3860936 -33 37 C-32.34 37 -31.68 37 -31 37 C-30.92128662 36.47672119 -30.84257324 35.95344238 -30.76147461 35.41430664 C-29.6942131 32.03048199 -27.77209413 29.29511089 -25.81640625 26.37109375 C-25.40083969 25.74018326 -24.98527313 25.10927277 -24.55711365 24.45924377 C-23.23086922 22.44843894 -21.89682176 20.44295169 -20.5625 18.4375 C-19.6681011 17.08432707 -18.7742151 15.73081498 -17.88085938 14.37695312 C-7.95724431 -0.64957096 -7.95724431 -0.64957096 0 0 Z " fill="#6F6F6F" transform="translate(203,150)"/>
<path d="M0 0 C4.25201285 1.41733762 6.99087422 3.98174844 9 8 C9.37766377 13.00404498 9.11200434 15.99885156 6 20 C3.41385255 22.67850986 2.21855566 22.98082845 -1.5625 23.3125 C-5 23 -5 23 -8 21 C-16.2278278 19.41958285 -24.92512418 19.81374187 -33.28198242 19.81469727 C-35.45836061 19.81247874 -37.63425571 19.79415806 -39.81054688 19.77539062 C-41.20572746 19.77246136 -42.60091041 19.77047344 -43.99609375 19.76953125 C-45.24575928 19.76542236 -46.4954248 19.76131348 -47.78295898 19.75708008 C-51.26230668 19.81565562 -51.26230668 19.81565562 -55 22 C-55 74.14 -55 126.28 -55 180 C-28.59979111 182.95323103 -28.59979111 182.95323103 -5 177 C1.99656881 176.21006481 1.99656881 176.21006481 5.9375 179.3125 C9.15993818 183.5114346 9.44092288 186.79710998 9 192 C7.36861406 195.08798053 5.92494088 197.2664262 3.1875 199.4375 C-0.09141871 200.28065053 -2.7246907 199.71461294 -6 199 C-7.485 198.01 -7.485 198.01 -9 197 C-11.66682688 196.68476665 -11.66682688 196.68476665 -14.70898438 196.71289062 C-15.88029907 196.69947632 -17.05161377 196.68606201 -18.25842285 196.67224121 C-19.52408081 196.66696411 -20.78973877 196.66168701 -22.09375 196.65625 C-24.07698564 196.63391114 -26.06022123 196.61156157 -28.0434494 196.58856964 C-31.5289006 196.5508206 -35.01444325 196.52580555 -38.5 196.5 C-42.65752174 196.46921951 -46.81492899 196.43625857 -50.97229004 196.38806152 C-53.56196614 196.35889181 -56.15175928 196.33855691 -58.74157715 196.32775879 C-59.91289185 196.31434448 -61.08420654 196.30093018 -62.29101562 196.28710938 C-63.32343384 196.27981812 -64.35585205 196.27252686 -65.41955566 196.26501465 C-68 196 -68 196 -71 194 C-72.16192973 190.51421082 -72.14813145 187.3892639 -72.14717102 183.76345825 C-72.15084771 183.02121628 -72.1545244 182.2789743 -72.1583125 181.51424015 C-72.16935056 179.0200659 -72.17319334 176.5259333 -72.17700195 174.03173828 C-72.18326639 172.24632637 -72.18991317 170.46091576 -72.19691467 168.67550659 C-72.21432327 163.820136 -72.22487554 158.96477526 -72.2331202 154.1093812 C-72.2382695 151.07723094 -72.24434519 148.04508374 -72.25063133 145.01293564 C-72.269681 135.52970129 -72.28391395 126.04647472 -72.2922433 116.56322491 C-72.30202306 105.60911571 -72.32836278 94.65520819 -72.36874419 83.70117009 C-72.39887418 75.23825472 -72.41370911 66.77539728 -72.41702431 58.31242931 C-72.41937788 53.25573271 -72.42837849 48.19925162 -72.45348549 43.14261246 C-72.47671746 38.38687656 -72.48101915 33.63149885 -72.47072411 28.87572098 C-72.47022748 27.12979442 -72.47658501 25.38385052 -72.49028015 23.6379776 C-72.50792759 21.25505627 -72.50092927 18.87343044 -72.48774719 16.49050903 C-72.49871644 15.79896701 -72.50968568 15.10742499 -72.52098733 14.39492714 C-72.47432705 10.90347418 -72.02953008 9.04650537 -70.13984108 6.07053375 C-67.36235331 3.38300605 -65.94128904 3.37942417 -62.11743164 3.38818359 C-60.34022484 3.37324356 -60.34022484 3.37324356 -58.52711487 3.35800171 C-57.25101852 3.37134552 -55.97492218 3.38468933 -54.66015625 3.3984375 C-52.65218892 3.3862051 -50.64422154 3.37395739 -48.63626003 3.3608036 C-45.82510986 3.34826473 -43.01421079 3.35793569 -40.20306396 3.36798096 C-35.28800831 3.38409773 -30.37312165 3.38137587 -25.45811462 3.35440063 C-22.84271304 3.34228446 -20.22719171 3.34502413 -17.61183167 3.36410522 C-15.82989662 3.35862167 -15.82989662 3.35862167 -14.01196289 3.35302734 C-12.96923721 3.35700531 -11.92651154 3.36098328 -10.85218811 3.36508179 C-6.61249885 2.82239902 -4.2689238 0 0 0 Z " fill="#777777" transform="translate(336,147)"/>
<path d="M0 0 C2.8125 2.5 2.8125 2.5 5 5 C5.33 5.33 5.66 5.66 6 6 C6.09854655 7.64340867 6.12972411 9.2911461 6.125 10.9375 C6.12886719 12.28134766 6.12886719 12.28134766 6.1328125 13.65234375 C6 16 6 16 5 18 C4.34 18 3.68 18 3 18 C3.08169815 53.50894332 3.17383544 89.01784411 3.28005161 124.52672275 C3.29257108 128.71508057 3.30500376 132.90343864 3.31738281 137.09179688 C3.3210818 138.34258223 3.3210818 138.34258223 3.32485552 139.61863597 C3.36462239 153.13554743 3.39735231 166.65246729 3.42749982 180.16940324 C3.45857014 194.03017033 3.49716044 207.89090163 3.54279006 221.75162852 C3.57072664 230.31034832 3.59273715 238.86904182 3.60726251 247.42779507 C3.61777234 253.29001605 3.63556017 259.15218622 3.65916704 265.014369 C3.6725865 268.40087685 3.68270531 271.78731323 3.68421364 275.17384911 C3.68751211 278.83852393 3.70292359 282.50294778 3.7215271 286.16757202 C3.71959237 287.24732091 3.71765763 288.3270698 3.71566427 289.43953836 C3.72686251 290.90331255 3.72686251 290.90331255 3.73828697 292.39665794 C3.74056529 293.24343428 3.74284362 294.09021062 3.74519098 294.96264684 C3.81652719 297.22578536 3.81652719 297.22578536 6 299 C7.12647153 303.7091592 7.38515542 307.82313622 5.875 312.4375 C3.72838942 315.37120112 2.43016741 316.7526664 -1 318 C-5.0922204 317.41539709 -7.55961478 316.30920665 -10.9375 313.9375 C-13.7252827 309.96702161 -13.64905634 306.7195668 -13 302 C-12.67 301.34 -12.34 300.68 -12 300 C-11.90481605 298.45599647 -11.87264196 296.90791323 -11.87136555 295.36097908 C-11.8681411 294.37714623 -11.86491665 293.39331337 -11.8615945 292.3796674 C-11.8639174 290.74662751 -11.8639174 290.74662751 -11.86628723 289.08059692 C-11.86402167 287.93014857 -11.86175612 286.77970022 -11.85942191 285.5943898 C-11.85416961 282.39137643 -11.85343993 279.18839817 -11.85461628 275.98538184 C-11.85481977 272.53472471 -11.84930652 269.08407606 -11.84455872 265.63342285 C-11.83624012 258.869182 -11.83350333 252.10494987 -11.83294634 245.34070434 C-11.83247173 239.84402618 -11.83041975 234.34735092 -11.82724571 228.85067368 C-11.81843568 213.27756815 -11.81382686 197.70446953 -11.81457619 182.1313615 C-11.81463612 180.87113492 -11.81463612 180.87113492 -11.81469727 179.58544922 C-11.81473815 178.7442761 -11.81477903 177.90310298 -11.81482115 177.03643976 C-11.81522767 163.40135301 -11.80565745 149.76629387 -11.7915589 136.13121511 C-11.77720752 122.14157699 -11.77028804 108.15195234 -11.77115268 94.16230667 C-11.77148508 86.30387258 -11.76871887 78.44546742 -11.75797462 70.58703995 C-11.74888586 63.89637977 -11.74668094 57.20576165 -11.75348405 50.51509799 C-11.75675756 47.09995974 -11.75677616 43.68490224 -11.7481308 40.26977158 C-11.74046444 36.57089803 -11.74502012 32.87223897 -11.75276184 29.17337036 C-11.74761828 28.08913855 -11.74247471 27.00490673 -11.73717529 25.88781941 C-11.74177408 24.89877106 -11.74637288 23.90972271 -11.75111103 22.8907032 C-11.75089366 22.03665716 -11.75067629 21.18261112 -11.75045234 20.3026849 C-12.02390778 17.77939248 -12.82865123 16.22745388 -14 14 C-14.45295055 9.01754396 -14.1745053 5.94076519 -11 2 C-7.15042489 -1.12127712 -4.71214851 -1.57071617 0 0 Z " fill="#6E6E6E" transform="translate(240,30)"/>
<path d="M0 0 C2.64 0 5.28 0 8 0 C9.98 5.61 11.96 11.22 14 17 C16.01613485 17.09293673 16.01613485 17.09293673 17.9375 16.4375 C20 16 20 16 23 17 C23.33 13.04 23.66 9.08 24 5 C23.34 5 22.68 5 22 5 C22.33 3.35 22.66 1.7 23 0 C25.97 0 28.94 0 32 0 C32.495 1.98 32.495 1.98 33 4 C32.67 4.33 32.34 4.66 32 5 C31.76518307 7.18292774 31.58636677 9.37203174 31.4375 11.5625 C31.35371094 12.76003906 31.26992187 13.95757812 31.18359375 15.19140625 C31.09271484 16.58166016 31.09271484 16.58166016 31 18 C32.3921875 17.443125 32.3921875 17.443125 33.8125 16.875 C34.864375 16.58625 35.91625 16.2975 37 16 C37.99 16.66 38.98 17.32 40 18 C39.34 19.65 38.68 21.3 38 23 C28.33333333 23 18.66666667 23 9 23 C8.34 21.35 7.68 19.7 7 18 C4.69 18 2.38 18 0 18 C-0.33 19.65 -0.66 21.3 -1 23 C-2.98 23 -4.96 23 -7 23 C-5.48526781 15.01323028 -2.83197448 7.59877122 0 0 Z M3 8 C2.67 9.65 2.34 11.3 2 13 C2.99 12.67 3.98 12.34 5 12 C4.34 10.68 3.68 9.36 3 8 Z " fill="#B5B5B5" transform="translate(220,442)"/>
<path d="M0 0 C0.66 0 1.32 0 2 0 C2 87.45 2 174.9 2 265 C1.34 265.33 0.68 265.66 0 266 C0.00132966 264.78662932 0.00265932 263.57325865 0.00402927 262.32311916 C0.03380776 232.2356668 -0.04522898 202.15018192 -0.21576118 172.06323433 C-0.2553977 165.04793979 -0.29212625 158.0326316 -0.32835388 151.01731873 C-0.34093638 148.58724688 -0.35352204 146.15717505 -0.3661108 143.72710323 C-0.37239274 142.51432103 -0.37867468 141.30153883 -0.38514698 140.05200565 C-0.46952694 123.80703125 -0.55636672 107.56207274 -0.64819336 91.31713867 C-0.71087611 80.22391554 -0.77001323 69.13067968 -0.82505554 58.03741592 C-0.85416241 52.20188667 -0.88513265 46.36638043 -0.92053413 40.5308857 C-0.9535385 35.08932294 -0.9819436 29.64775637 -1.00670624 24.20615005 C-1.01663951 22.20898048 -1.02831807 20.21181875 -1.04183006 18.21467018 C-1.05994384 15.50078355 -1.07192074 12.7869389 -1.08229065 10.07301331 C-1.08909444 9.27570897 -1.09589823 8.47840464 -1.10290819 7.65693957 C-1.11411835 2.22823669 -1.11411835 2.22823669 0 0 Z " fill="#C1C1C1" transform="translate(192,179)"/>
<path d="M0 0 C2.08268593 -0.08126087 4.16628658 -0.13930839 6.25 -0.1875 C7.99023438 -0.23970703 7.99023438 -0.23970703 9.765625 -0.29296875 C13.23879347 0.02162984 14.59363337 0.52285788 17 3 C17.25 5.4375 17.25 5.4375 17 8 C17 9.32 17 10.64 17 12 C17.33 12.33 17.66 12.66 18 13 C17.77021823 19.20410783 17.77021823 19.20410783 15.125 21.9375 C10.47597548 23.51816834 5.86904148 23.4248157 1 23 C0 22 0 22 -0.11352539 19.86694336 C-0.10828857 18.95050049 -0.10305176 18.03405762 -0.09765625 17.08984375 C-0.09443359 16.10048828 -0.09121094 15.11113281 -0.08789062 14.09179688 C-0.07951172 13.05087891 -0.07113281 12.00996094 -0.0625 10.9375 C-0.05798828 9.89271484 -0.05347656 8.84792969 -0.04882812 7.77148438 C-0.03699913 5.1809334 -0.02051689 2.59049441 0 0 Z M7 5 C7.33 6.32 7.66 7.64 8 9 C8.66 8.67 9.32 8.34 10 8 C9.67 7.01 9.34 6.02 9 5 C8.34 5 7.68 5 7 5 Z M7 14 C7 14.99 7 15.98 7 17 C8.32 16.67 9.64 16.34 11 16 C11 15.34 11 14.68 11 14 C9.68 14 8.36 14 7 14 Z " fill="#919191" transform="translate(326,442)"/>
<path d="M0 0 C1.99954746 -0.04254356 4.00041636 -0.04080783 6 0 C7.99616554 1.99616554 7.40983427 5.81701963 7.5625 8.5625 C7.60568359 9.27341797 7.64886719 9.98433594 7.69335938 10.71679688 C7.79971777 12.47761912 7.90038846 14.2387832 8 16 C9.32 15.67 10.64 15.34 12 15 C12.33 10.05 12.66 5.1 13 0 C14.98 0 16.96 0 19 0 C19.13539281 2.89740622 19.23426829 5.78845621 19.3125 8.6875 C19.35439453 9.50412109 19.39628906 10.32074219 19.43945312 11.16210938 C19.52783528 15.52818777 19.42369987 17.42222745 16.765625 21.046875 C13.19957222 23.56527386 11.30921406 23.66527298 7.08984375 23.43359375 C4.07313512 22.80769719 2.74924068 21.47809096 1 19 C-0.65497356 15.69005287 -0.10084335 12.00877 -0.0625 8.375 C-0.05798828 7.57320313 -0.05347656 6.77140625 -0.04882812 5.9453125 C-0.03703168 3.96350994 -0.01909605 1.98174567 0 0 Z " fill="#909090" transform="translate(304,442)"/>
<path d="M0 0 C2.64 0 5.28 0 8 0 C10.87217429 7.02680781 12.67021516 13.39845954 13 21 C11.02 20.67 9.04 20.34 7 20 C7 19.34 7 18.68 7 18 C4.69 18 2.38 18 0 18 C-0.33 19.65 -0.66 21.3 -1 23 C-2.98 23 -4.96 23 -7 23 C-5.48526781 15.01323028 -2.83197448 7.59877122 0 0 Z M3 8 C2.67 9.65 2.34 11.3 2 13 C2.99 12.67 3.98 12.34 5 12 C4.34 10.68 3.68 9.36 3 8 Z " fill="#8A8A8A" transform="translate(220,442)"/>
<path d="M0 0 C1.61648438 0.04060547 1.61648438 0.04060547 3.265625 0.08203125 C4.08546875 0.11683594 4.9053125 0.15164063 5.75 0.1875 C5.75 2.1675 5.75 4.1475 5.75 6.1875 C4.79287109 6.27837891 4.79287109 6.27837891 3.81640625 6.37109375 C2.99011719 6.45488281 2.16382813 6.53867187 1.3125 6.625 C0.07693359 6.74681641 0.07693359 6.74681641 -1.18359375 6.87109375 C-3.23662025 6.97680815 -3.23662025 6.97680815 -4.25 8.1875 C-4.41666667 11.6875 -4.41666667 11.6875 -4.25 15.1875 C-3.24163938 16.42017348 -3.24163938 16.42017348 -1.18359375 16.28515625 C-0.35988281 16.27355469 0.46382813 16.26195312 1.3125 16.25 C2.13878906 16.24097656 2.96507812 16.23195313 3.81640625 16.22265625 C4.45449219 16.21105469 5.09257812 16.19945312 5.75 16.1875 C5.75 18.1675 5.75 20.1475 5.75 22.1875 C2.28041854 23.92229073 -1.45660968 23.65849142 -5.25 23.1875 C-10.89028777 20.26663669 -10.89028777 20.26663669 -12.25 16.1875 C-12.67379182 7.42913569 -12.67379182 7.42913569 -10.25 3.1875 C-6.93382758 -0.00585122 -4.51625836 -0.14726929 0 0 Z " fill="#939393" transform="translate(281.25,441.8125)"/>
<path d="M0 0 C1.98 0 3.96 0 6 0 C7.32594359 5.96674616 7.0884587 11.92583615 7 18 C9.64 18 12.28 18 15 18 C14.67 19.65 14.34 21.3 14 23 C9.38 23 4.76 23 0 23 C0 15.41 0 7.82 0 0 Z " fill="#959595" transform="translate(289,442)"/>
<path d="M0 0 C2.97 0 5.94 0 9 0 C9.33 1.32 9.66 2.64 10 4 C9.67 4.33 9.34 4.66 9 5 C8.76321284 7.69235776 8.57801975 10.36498156 8.4375 13.0625 C8.39431641 13.82111328 8.35113281 14.57972656 8.30664062 15.36132812 C8.20026367 17.24065438 8.09960066 19.12030244 8 21 C5.69 21 3.38 21 1 21 C1.33 15.39 1.66 9.78 2 4 C1.34 4 0.68 4 0 4 C0 2.68 0 1.36 0 0 Z " fill="#868686" transform="translate(243,442)"/>
<path d="M0 0 C0.66 0.33 1.32 0.66 2 1 C-3.62638979 7.49096506 -9.44097693 13.44886464 -16 19 C-16 16 -16 16 -14.53125 14.19067383 C-13.8609375 13.53607178 -13.190625 12.88146973 -12.5 12.20703125 C-11.778125 11.49482422 -11.05625 10.78261719 -10.3125 10.04882812 C-9.549375 9.31083984 -8.78625 8.57285156 -8 7.8125 C-6.8553125 6.68811523 -6.8553125 6.68811523 -5.6875 5.54101562 C-3.79819161 3.68713177 -1.90224794 1.84058931 0 0 Z " fill="#FDC884" transform="translate(126,101)"/>
<path d="M0 0 C-0.33 0.66 -0.66 1.32 -1 2 C-3.64 1.67 -6.28 1.34 -9 1 C-9.66 2.32 -10.32 3.64 -11 5 C-11.66 5 -12.32 5 -13 5 C-13.33 5.99 -13.66 6.98 -14 8 C-15.98 8 -17.96 8 -20 8 C-17 6 -17 6 -14 6 C-13.7525 5.401875 -13.505 4.80375 -13.25 4.1875 C-9.79349351 -1.86138636 -6.22863313 -1.14191607 0 0 Z " fill="#FED6A2" transform="translate(223,54)"/>
<path d="M0 0 C2.475 0.99 2.475 0.99 5 2 C4.34 3.65 3.68 5.3 3 7 C1.68 7 0.36 7 -1 7 C-1.04254356 5.00045254 -1.04080783 2.99958364 -1 1 C-0.67 0.67 -0.34 0.34 0 0 Z " fill="#A0A0A0" transform="translate(255,458)"/>
<path d="M0 0 C2.0625 1.6875 2.0625 1.6875 4 4 C3.75 6.75 3.75 6.75 3 9 C1.02 9 -0.96 9 -3 9 C-3 8.01 -3 7.02 -3 6 C-1.02 6.495 -1.02 6.495 1 7 C0.67 4.69 0.34 2.38 0 0 Z " fill="#D1D1D1" transform="translate(232,456)"/>
<path d="M0 0 C0.99 0 1.98 0 3 0 C3 1.32 3 2.64 3 4 C0.59454362 5.20272819 -0.94996953 5.10071472 -3.625 5.0625 C-4.85089844 5.04896484 -4.85089844 5.04896484 -6.1015625 5.03515625 C-7.04128906 5.01775391 -7.04128906 5.01775391 -8 5 C-8 4.67 -8 4.34 -8 4 C-5.36 4 -2.72 4 0 4 C0 2.68 0 1.36 0 0 Z " fill="#E4E4E4" transform="translate(251,460)"/>
<path d="M0 0 C0 0.33 0 0.66 0 1 C-0.886875 1.268125 -1.77375 1.53625 -2.6875 1.8125 C-5.76877548 2.91710819 -8.26221405 4.22849144 -11 6 C-10.1875 3.5625 -10.1875 3.5625 -9 1 C-5.8035914 -0.06546953 -3.34252724 -0.07427838 0 0 Z " fill="#C5C5C5" transform="translate(203,150)"/>
<path d="M0 0 C1.32 0.33 2.64 0.66 4 1 C3.67 1.66 3.34 2.32 3 3 C5.31 3 7.62 3 10 3 C10 3.33 10 3.66 10 4 C7.03 4 4.06 4 1 4 C0.67 2.68 0.34 1.36 0 0 Z " fill="#AAAAAA" transform="translate(241,460)"/>
</svg>
